<svg width="141" height="27" viewBox="0 0 141 27" fill="none" xmlns="http://www.w3.org/2000/svg">
<path d="M35.9102 13.9001C35.6621 9.20351 34.9227 4.54519 33.7039 0H25.8057C25.8069 0.0135337 25.8069 0.0271493 25.8057 0.0406831L14.8529 10.9132V4.2107L10.1837 0H2.28208C-0.0615294 8.80199 -0.606965 17.9794 0.677804 26.9932H8.39473C7.81675 22.788 7.6381 18.5384 7.86111 14.3001C7.96145 12.3835 8.14161 10.4917 8.40157 8.62481L14.8529 15.0121L17.9896 18.1209L27.5673 8.6282C27.825 10.4974 28.0052 12.3903 28.1078 14.3069C28.3342 18.5448 28.159 22.7945 27.5844 27H35.3082C35.9348 22.6628 36.1365 18.2757 35.9102 13.9001Z" fill="#F92B3F"/>
<path d="M61.43 21L61.4062 11.0498L56.6052 19.2854H55.3948L50.5904 11.1855V21H48V6H50.2344L56.0424 15.9432L61.7453 6H63.9797L64 21H61.43Z" fill="black"/>
<path fill-rule="evenodd" clip-rule="evenodd" d="M68.5307 15.2974H76.9706C76.9967 14.9753 77.0054 14.7294 76.9967 14.5597C77.0174 13.5478 76.7777 12.5475 76.3005 11.6545C75.8571 10.8309 75.1867 10.1512 74.3687 9.69602C73.5091 9.2245 72.5414 8.98486 71.5608 9.00074C70.5625 8.98538 69.5771 9.22827 68.7007 9.70581C67.8689 10.1605 67.1815 10.839 66.7165 11.6643C66.2328 12.5272 65.9858 13.5024 66.0007 14.4911C65.9851 15.4887 66.2392 16.472 66.7361 17.3375C67.2286 18.1768 67.9526 18.8567 68.8216 19.2961C70.5833 20.1336 72.6085 20.2277 74.4406 19.5572C75.1519 19.2825 75.7825 18.8335 76.2743 18.2515L74.944 16.7043C74.1762 17.4821 73.1181 17.9045 72.025 17.8696C71.1909 17.9019 70.3695 17.6586 69.6878 17.1776C69.0705 16.7263 68.6551 16.0512 68.5307 15.2974ZM68.5111 13.6261C68.6027 12.889 68.965 12.2121 69.5276 11.7264C70.1001 11.2433 70.8313 10.9886 71.5804 11.0115C72.3314 10.9879 73.0639 11.2465 73.6332 11.7361C74.1829 12.2233 74.5323 12.8967 74.6138 13.6261H68.5111Z" fill="black"/>
<path fill-rule="evenodd" clip-rule="evenodd" d="M81.5181 15.2974H89.9563C89.9846 14.9753 89.9988 14.7294 89.9988 14.5597C90.0194 13.5478 89.7797 12.5475 89.3024 11.6545C88.8589 10.8309 88.1884 10.1512 87.3702 9.69602C86.5105 9.2245 85.5426 8.98486 84.5618 9.00074C83.5633 8.98538 82.5778 9.22827 81.7012 9.70581C80.8692 10.1605 80.1817 10.839 79.7167 11.6643C79.2328 12.5272 78.9858 13.5024 79.0007 14.4911C78.9851 15.4887 79.2393 16.472 79.7363 17.3375C80.2288 18.1768 80.9529 18.8567 81.8221 19.2961C83.5842 20.1336 85.6098 20.2277 87.4421 19.5572C88.1536 19.2825 88.7843 18.8335 89.2762 18.2515L87.926 16.7043C87.1579 17.4842 86.0981 17.9079 85.0032 17.8729C84.1719 17.902 83.3541 17.6577 82.6754 17.1776C82.058 16.7263 81.6425 16.0512 81.5181 15.2974ZM81.4985 13.6261C81.5901 12.889 81.9524 12.2121 82.5152 11.7264C83.087 11.244 83.8169 10.9894 84.5651 11.0115C85.3162 10.9879 86.0489 11.2465 86.6183 11.7361C87.1681 12.2233 87.5175 12.8967 87.5991 13.6261H81.4985Z" fill="black"/>
<path fill-rule="evenodd" clip-rule="evenodd" d="M94.5266 15.2974H102.95C102.976 14.9753 102.992 14.7294 102.999 14.5597C103.019 13.5478 102.78 12.5475 102.304 11.6545C101.861 10.8309 101.192 10.1512 100.375 9.69602C99.5167 9.2245 98.5505 8.98486 97.5715 9.00074C96.5748 8.98538 95.591 9.22827 94.7159 9.70581C93.8855 10.1605 93.1992 10.839 92.735 11.6643C92.2452 12.5253 91.9918 13.5006 92.0007 14.4911C91.9852 15.4887 92.2388 16.472 92.735 17.3375C93.2266 18.1768 93.9495 18.8567 94.8171 19.2961C96.576 20.1336 98.598 20.2277 100.427 19.5572C101.137 19.2825 101.767 18.8335 102.258 18.2515L100.91 16.7043C100.144 17.4821 99.0872 17.9045 97.9958 17.8696C97.166 17.8987 96.3496 17.6545 95.6721 17.1743C95.0602 16.722 94.6492 16.0485 94.5266 15.2974ZM94.5071 13.6261C94.5986 12.889 94.9602 12.2121 95.522 11.7264C96.0936 11.2433 96.8236 10.9886 97.5715 11.0115C98.3213 10.9879 99.0526 11.2465 99.621 11.7361C100.17 12.2233 100.519 12.8967 100.6 13.6261H94.5071Z" fill="black"/>
<path d="M111.347 15.7018V21H108.67V15.747L103 6H105.865L110.092 13.3103L114.359 6H117L111.347 15.7018Z" fill="black"/>
<path fill-rule="evenodd" clip-rule="evenodd" d="M116.771 17.3402C117.278 18.1709 118.019 18.8492 118.911 19.2978C120.853 20.2341 123.147 20.2341 125.089 19.2978C125.981 18.8492 126.722 18.1709 127.229 17.3402C127.749 16.4751 128.015 15.4922 127.999 14.4951C128.017 13.5009 127.751 12.5208 127.229 11.6598C126.721 10.8299 125.98 10.1518 125.089 9.70216C123.147 8.76595 120.853 8.76595 118.911 9.70216C118.02 10.1518 117.279 10.8299 116.771 11.6598C116.249 12.5208 115.983 13.5009 116.001 14.4951C115.985 15.4922 116.251 16.4751 116.771 17.3402ZM125.336 14.4918C125.379 15.3921 125.036 16.2703 124.388 16.9258L124.395 16.9291C123.764 17.5427 122.892 17.8764 121.991 17.8492C121.092 17.8778 120.221 17.5424 119.595 16.9258C118.953 16.2674 118.615 15.3903 118.657 14.4918C118.615 13.5945 118.953 12.7188 119.595 12.0611C120.221 11.4446 121.092 11.1092 121.991 11.1378C122.89 11.1132 123.759 11.448 124.388 12.0611C125.036 12.7158 125.378 13.5927 125.336 14.4918Z" fill="black"/>
<path d="M141 9V19.8578H138.487V18.475C138.06 18.9668 137.517 19.3536 136.904 19.6037C136.254 19.8717 135.554 20.0065 134.847 19.9998C133.341 19.9998 132.155 19.596 131.289 18.7886C130.423 17.9811 129.993 16.7853 130 15.2012V9H132.64V14.8547C132.64 15.8315 132.868 16.5598 133.325 17.0394C133.836 17.5425 134.549 17.8063 135.279 17.7622C136.119 17.8012 136.937 17.4939 137.528 16.9173C138.094 16.3563 138.378 15.5466 138.378 14.4883V9H141Z" fill="black"/>
</svg>
